HIERARCHY
ROOT mixamorig:Hips
{
	OFFSET -0.000008 104.274872 1.554316
	CHANNELS 6 Xposition Yposition Zposition Xrotation Yrotation Zrotation
	JOINT mixamorig:Spine
	{
		OFFSET -0.000005 10.181595 0.131519
		CHANNELS 6 Xposition Yposition Zposition Xrotation Yrotation Zrotation
		JOINT mixamorig:Spine1
		{
			OFFSET -0.000000 9.893959 -1.470707
			CHANNELS 6 Xposition Yposition Zposition Xrotation Yrotation Zrotation
			JOINT mixamorig:Spine2
			{
				OFFSET -0.000000 9.220757 -1.370641
				CHANNELS 6 Xposition Yposition Zposition Xrotation Yrotation Zrotation
				JOINT mixamorig:Neck
				{
					OFFSET 0.000001 16.740417 -2.049036
					CHANNELS 6 Xposition Yposition Zposition Xrotation Yrotation Zrotation
					JOINT mixamorig:Head
					{
						OFFSET 0.000000 9.617874 1.685006
						CHANNELS 6 Xposition Yposition Zposition Xrotation Yrotation Zrotation
						JOINT mixamorig:HeadTop_End
						{
							OFFSET 0.000002 22.037354 7.501101
							CHANNELS 6 Xposition Yposition Zposition Xrotation Yrotation Zrotation
							End Site
							{
								OFFSET 0.000168 2310.654297 -282.823242
							}
						}
					}
				}
				JOINT mixamorig:RightShoulder
				{
					OFFSET -4.569970 11.014908 -2.160885
					CHANNELS 6 Xposition Yposition Zposition Xrotation Yrotation Zrotation
					JOINT mixamorig:RightArm
					{
						OFFSET -10.592851 -0.524811 -2.232101
						CHANNELS 6 Xposition Yposition Zposition Xrotation Yrotation Zrotation
						JOINT mixamorig:RightForeArm
						{
							OFFSET -27.841511 0.000031 -0.000004
							CHANNELS 6 Xposition Yposition Zposition Xrotation Yrotation Zrotation
							JOINT mixamorig:RightHand
							{
								OFFSET -28.328831 -0.000015 0.000015
								CHANNELS 6 Xposition Yposition Zposition Xrotation Yrotation Zrotation
								JOINT mixamorig:RightHandThumb1
								{
									OFFSET -2.464806 -1.573990 2.681852
									CHANNELS 6 Xposition Yposition Zposition Xrotation Yrotation Zrotation
									JOINT mixamorig:RightHandThumb2
									{
										OFFSET -3.215179 -1.872803 1.924282
										CHANNELS 6 Xposition Yposition Zposition Xrotation Yrotation Zrotation
										JOINT mixamorig:RightHandThumb3
										{
											OFFSET -2.654831 -1.527969 1.512609
											CHANNELS 6 Xposition Yposition Zposition Xrotation Yrotation Zrotation
											JOINT mixamorig:RightHandThumb4
											{
												OFFSET -2.018814 -1.152008 1.108052
												CHANNELS 6 Xposition Yposition Zposition Xrotation Yrotation Zrotation
												End Site
												{
													OFFSET -188.809540 -114.533607 132.431396
												}
											}
										}
									}
								}
								JOINT mixamorig:RightHandIndex1
								{
									OFFSET -9.108284 -0.517868 2.259835
									CHANNELS 6 Xposition Yposition Zposition Xrotation Yrotation Zrotation
									JOINT mixamorig:RightHandIndex2
									{
										OFFSET -3.699989 0.000000 0.001215
										CHANNELS 6 Xposition Yposition Zposition Xrotation Yrotation Zrotation
										JOINT mixamorig:RightHandIndex3
										{
											OFFSET -2.850006 0.000031 -0.000522
											CHANNELS 6 Xposition Yposition Zposition Xrotation Yrotation Zrotation
											JOINT mixamorig:RightHandIndex4
											{
												OFFSET -2.772186 -0.000015 -0.000020
												CHANNELS 6 Xposition Yposition Zposition Xrotation Yrotation Zrotation
												End Site
												{
													OFFSET -277.218445 0.000000 -0.050231
												}
											}
										}
									}
								}
								JOINT mixamorig:RightHandMiddle1
								{
									OFFSET -9.532516 -0.000031 -0.000023
									CHANNELS 6 Xposition Yposition Zposition Xrotation Yrotation Zrotation
									JOINT mixamorig:RightHandMiddle2
									{
										OFFSET -3.700005 -0.000015 0.003713
										CHANNELS 6 Xposition Yposition Zposition Xrotation Yrotation Zrotation
										JOINT mixamorig:RightHandMiddle3
										{
											OFFSET -2.949974 0.000015 -0.002054
											CHANNELS 6 Xposition Yposition Zposition Xrotation Yrotation Zrotation
											JOINT mixamorig:RightHandMiddle4
											{
												OFFSET -2.946640 0.000000 -0.000156
												CHANNELS 6 Xposition Yposition Zposition Xrotation Yrotation Zrotation
												End Site
												{
													OFFSET -294.664337 0.000000 -0.113670
												}
											}
										}
									}
								}
								JOINT mixamorig:RightHandRing1
								{
									OFFSET -9.103600 -0.043076 -1.865134
									CHANNELS 6 Xposition Yposition Zposition Xrotation Yrotation Zrotation
									JOINT mixamorig:RightHandRing2
									{
										OFFSET -3.379288 0.000000 -0.001055
										CHANNELS 6 Xposition Yposition Zposition Xrotation Yrotation Zrotation
										JOINT mixamorig:RightHandRing3
										{
											OFFSET -2.889687 -0.000015 0.000379
											CHANNELS 6 Xposition Yposition Zposition Xrotation Yrotation Zrotation
											JOINT mixamorig:RightHandRing4
											{
												OFFSET -2.638809 -0.000015 0.000941
												CHANNELS 6 Xposition Yposition Zposition Xrotation Yrotation Zrotation
												End Site
												{
													OFFSET -263.880371 0.000000 0.516020
												}
											}
										}
									}
								}
								JOINT mixamorig:RightHandPinky1
								{
									OFFSET -8.076683 -0.486710 -3.806280
									CHANNELS 6 Xposition Yposition Zposition Xrotation Yrotation Zrotation
									JOINT mixamorig:RightHandPinky2
									{
										OFFSET -3.600014 -0.000015 -0.003747
										CHANNELS 6 Xposition Yposition Zposition Xrotation Yrotation Zrotation
										JOINT mixamorig:RightHandPinky3
										{
											OFFSET -2.099983 0.000000 -0.005739
											CHANNELS 6 Xposition Yposition Zposition Xrotation Yrotation Zrotation
											JOINT mixamorig:RightHandPinky4
											{
												OFFSET -2.115768 -0.000031 -0.003680
												CHANNELS 6 Xposition Yposition Zposition Xrotation Yrotation Zrotation
												End Site
												{
													OFFSET -211.577087 0.000000 -0.350686
												}
											}
										}
									}
								}
							}
						}
					}
				}
				JOINT mixamorig:LeftShoulder
				{
					OFFSET 4.570447 11.014725 -2.160855
					CHANNELS 6 Xposition Yposition Zposition Xrotation Yrotation Zrotation
					JOINT mixamorig:LeftArm
					{
						OFFSET 10.592371 -0.524597 -2.232119
						CHANNELS 6 Xposition Yposition Zposition Xrotation Yrotation Zrotation
						JOINT mixamorig:LeftForeArm
						{
							OFFSET 27.841532 -0.000031 0.000026
							CHANNELS 6 Xposition Yposition Zposition Xrotation Yrotation Zrotation
							JOINT mixamorig:LeftHand
							{
								OFFSET 28.328846 -0.000061 0.000022
								CHANNELS 6 Xposition Yposition Zposition Xrotation Yrotation Zrotation
								JOINT mixamorig:LeftHandThumb1
								{
									OFFSET 2.466141 -1.576172 2.681732
									CHANNELS 6 Xposition Yposition Zposition Xrotation Yrotation Zrotation
									JOINT mixamorig:LeftHandThumb2
									{
										OFFSET 3.217812 -1.872070 1.916482
										CHANNELS 6 Xposition Yposition Zposition Xrotation Yrotation Zrotation
										JOINT mixamorig:LeftHandThumb3
										{
											OFFSET 2.656029 -1.528778 1.514513
											CHANNELS 6 Xposition Yposition Zposition Xrotation Yrotation Zrotation
											JOINT mixamorig:LeftHandThumb4
											{
												OFFSET 2.020889 -1.154053 1.115139
												CHANNELS 6 Xposition Yposition Zposition Xrotation Yrotation Zrotation
												End Site
												{
													OFFSET 190.885437 -115.081749 130.048782
												}
											}
										}
									}
								}
								JOINT mixamorig:LeftHandIndex1
								{
									OFFSET 9.109314 -0.518021 2.259871
									CHANNELS 6 Xposition Yposition Zposition Xrotation Yrotation Zrotation
									JOINT mixamorig:LeftHandIndex2
									{
										OFFSET 3.699989 0.000000 -0.000322
										CHANNELS 6 Xposition Yposition Zposition Xrotation Yrotation Zrotation
										JOINT mixamorig:LeftHandIndex3
										{
											OFFSET 2.850006 0.000000 0.000352
											CHANNELS 6 Xposition Yposition Zposition Xrotation Yrotation Zrotation
											JOINT mixamorig:LeftHandIndex4
											{
												OFFSET 2.774864 -0.000031 -0.000027
												CHANNELS 6 Xposition Yposition Zposition Xrotation Yrotation Zrotation
												End Site
												{
													OFFSET 277.486267 0.000000 -0.009857
												}
											}
										}
									}
								}
								JOINT mixamorig:LeftHandMiddle1
								{
									OFFSET 9.533394 0.000061 0.000044
									CHANNELS 6 Xposition Yposition Zposition Xrotation Yrotation Zrotation
									JOINT mixamorig:LeftHandMiddle2
									{
										OFFSET 3.699989 -0.000015 -0.000231
										CHANNELS 6 Xposition Yposition Zposition Xrotation Yrotation Zrotation
										JOINT mixamorig:LeftHandMiddle3
										{
											OFFSET 2.949997 -0.000015 -0.000059
											CHANNELS 6 Xposition Yposition Zposition Xrotation Yrotation Zrotation
											JOINT mixamorig:LeftHandMiddle4
											{
												OFFSET 2.952896 0.000031 0.000063
												CHANNELS 6 Xposition Yposition Zposition Xrotation Yrotation Zrotation
												End Site
												{
													OFFSET 295.289337 0.000000 0.022810
												}
											}
										}
									}
								}
								JOINT mixamorig:LeftHandRing1
								{
									OFFSET 9.104523 -0.042999 -1.865074
									CHANNELS 6 Xposition Yposition Zposition Xrotation Yrotation Zrotation
									JOINT mixamorig:LeftHandRing2
									{
										OFFSET 3.150009 -0.000031 0.000043
										CHANNELS 6 Xposition Yposition Zposition Xrotation Yrotation Zrotation
										JOINT mixamorig:LeftHandRing3
										{
											OFFSET 2.949982 -0.000015 0.000040
											CHANNELS 6 Xposition Yposition Zposition Xrotation Yrotation Zrotation
											JOINT mixamorig:LeftHandRing4
											{
												OFFSET 2.644348 0.000000 0.000057
												CHANNELS 6 Xposition Yposition Zposition Xrotation Yrotation Zrotation
												End Site
												{
													OFFSET 264.434631 0.000000 0.012105
												}
											}
										}
									}
								}
								JOINT mixamorig:LeftHandPinky1
								{
									OFFSET 8.077789 -0.486847 -3.806259
									CHANNELS 6 Xposition Yposition Zposition Xrotation Yrotation Zrotation
									JOINT mixamorig:LeftHandPinky2
									{
										OFFSET 3.599953 0.000031 0.014727
										CHANNELS 6 Xposition Yposition Zposition Xrotation Yrotation Zrotation
										JOINT mixamorig:LeftHandPinky3
										{
											OFFSET 2.100021 0.000015 0.007705
											CHANNELS 6 Xposition Yposition Zposition Xrotation Yrotation Zrotation
											JOINT mixamorig:LeftHandPinky4
											{
												OFFSET 2.125504 0.000031 0.007517
												CHANNELS 6 Xposition Yposition Zposition Xrotation Yrotation Zrotation
												End Site
												{
													OFFSET 212.550781 0.000000 0.625752
												}
											}
										}
									}
								}
							}
						}
					}
				}
			}
		}
	}
	JOINT mixamorig:RightUpLeg
	{
		OFFSET -8.207787 -6.751648 -1.599560
		CHANNELS 6 Xposition Yposition Zposition Xrotation Yrotation Zrotation
		JOINT mixamorig:RightLeg
		{
			OFFSET -0.000002 -44.370117 0.345942
			CHANNELS 6 Xposition Yposition Zposition Xrotation Yrotation Zrotation
			JOINT mixamorig:RightFoot
			{
				OFFSET 0.000003 -44.423679 -3.043532
				CHANNELS 6 Xposition Yposition Zposition Xrotation Yrotation Zrotation
				JOINT mixamorig:RightToeBase
				{
					OFFSET -0.000002 -8.728671 10.710558
					CHANNELS 6 Xposition Yposition Zposition Xrotation Yrotation Zrotation
					JOINT mixamorig:RightToe_End
					{
						OFFSET -0.000001 -0.000679 9.278119
						CHANNELS 6 Xposition Yposition Zposition Xrotation Yrotation Zrotation
						End Site
						{
							OFFSET 0.000000 -0.067690 927.812134
						}
					}
				}
			}
		}
	}
	JOINT mixamorig:LeftUpLeg
	{
		OFFSET 8.207793 -6.751686 -1.599556
		CHANNELS 6 Xposition Yposition Zposition Xrotation Yrotation Zrotation
		JOINT mixamorig:LeftLeg
		{
			OFFSET -0.000004 -44.370014 0.346954
			CHANNELS 6 Xposition Yposition Zposition Xrotation Yrotation Zrotation
			JOINT mixamorig:LeftFoot
			{
				OFFSET -0.000001 -44.423672 -3.044401
				CHANNELS 6 Xposition Yposition Zposition Xrotation Yrotation Zrotation
				JOINT mixamorig:LeftToeBase
				{
					OFFSET -0.000002 -8.728669 10.710558
					CHANNELS 6 Xposition Yposition Zposition Xrotation Yrotation Zrotation
					JOINT mixamorig:LeftToe_End
					{
						OFFSET -0.000003 -0.000679 9.278133
						CHANNELS 6 Xposition Yposition Zposition Xrotation Yrotation Zrotation
						End Site
						{
							OFFSET 0.000000 -0.068021 927.813477
						}
					}
				}
			}
		}
	}
}
MOTION
Frames: 3
Frame Time: 0.033333
0.000006 104.270477 1.554256 0.000010 0.000003 -0.000113 -0.000005 10.181587 0.131522 0.000001 -0.000003 0.000084 -0.000000 9.893967 -1.470711 0.000001 0.000000 -0.000000 -0.000000 9.220802 -1.370642 0.000000 -0.000000 -0.000000 0.000001 16.740433 -2.049030 0.000000 -0.000000 -0.000000 0.000000 9.617859 1.685014 0.000000 0.000000 0.000000 0.000002 22.037384 7.501101 0.000000 -0.000000 0.000000 -4.569968 11.014880 -2.160881 0.000008 0.000001 -0.000038 -10.592865 -0.524802 -2.231857 73.228418 40.023508 -30.285469 -27.841501 -0.000006 0.000579 -43.347901 111.387900 60.438671 -28.328823 0.000020 0.000029 -0.000316 -0.000044 0.000008 -2.464387 -1.573900 2.682350 -35.929797 -151.877944 14.185158 -3.215205 -1.872484 1.924603 145.000067 34.109138 42.521766 -2.654949 -1.527852 1.513066 149.122291 27.230605 -30.593899 -2.018816 -1.152011 1.108063 -0.000004 -0.000005 0.000004 -9.108385 -0.517561 2.260147 102.228910 16.696517 -20.682796 -3.700044 0.000318 0.001527 99.950092 13.205016 -15.666396 -2.850088 0.000362 -0.000248 99.840932 10.798037 -12.815673 -2.772159 -0.000000 -0.000008 -0.000000 -0.000002 -0.000002 -9.532599 0.000275 0.000289 100.909167 16.324685 -19.881653 -3.700074 0.000333 0.004015 103.133985 10.209358 -12.729231 -2.950045 0.000344 -0.001747 104.823890 10.324025 -13.377887 -2.946634 -0.000013 -0.000152 -0.000001 -0.000002 0.000001 -9.103682 -0.042764 -1.864826 102.042562 18.510007 -22.716390 -3.379312 0.000342 -0.000775 104.861565 7.361439 -9.582503 -2.889739 0.000358 0.000684 109.637787 5.612221 -8.018574 -2.638810 -0.000015 0.000934 0.000004 0.000003 0.000000 -8.076751 -0.486404 -3.805996 91.490678 22.475328 -22.891060 -3.600036 0.000285 -0.003488 95.545051 8.875762 -9.382049 -2.100010 0.000319 -0.005460 97.878701 4.416850 -4.822010 -2.115764 -0.000053 -0.003680 -0.000001 -0.000002 -0.000002 4.570446 11.014691 -2.160851 -0.000018 0.000010 -0.000021 10.592488 -0.524574 -2.232354 31.206438 -71.187879 22.607822 27.841726 -0.000092 -0.000084 57.496771 -108.834235 74.957378 28.328831 -0.000028 0.000016 0.000017 -0.000087 -0.000000 2.466137 -1.576175 2.681845 123.639306 141.567828 -162.635096 3.217789 -1.872030 1.916534 247.840463 53.445732 59.559892 2.655962 -1.528844 1.514636 181.609484 45.606522 122.167864 2.020895 -1.154071 1.115142 0.000002 0.000003 0.000004 9.109134 -0.517655 2.260004 17.687222 -170.811270 125.391960 3.700070 -0.000005 -0.000273 -7.991550 -165.554647 -417.594214 2.850135 0.000254 0.000322 -33.195126 -164.999899 227.656762 2.774893 -0.000029 -0.000028 0.000003 -0.000000 0.000004 9.533538 0.000314 0.000069 -197.860540 -8.575250 -309.041608 3.700000 0.000073 -0.000384 50.870108 -2.987669 1.420001 2.950011 -0.000009 -0.000103 195.563752 -177.660337 180.320177 2.952882 -0.000032 0.000058 0.000001 0.000001 -0.000000 9.104603 -0.042659 -1.865098 -206.083350 -4.846448 20.714794 3.149978 0.000088 -0.000101 220.974638 -195.630661 174.128856 2.949975 0.000007 -0.000009 10.212860 5.796692 -0.518381 2.644318 0.000046 0.000055 0.000000 -0.000002 -0.000000 8.077796 -0.486494 -3.806363 -227.606260 -0.082684 1.266021 3.599926 0.000069 0.014592 33.790288 17.608962 -5.332910 2.099999 -0.000006 0.007632 12.777481 16.631613 -1.890801 2.125514 -0.000029 0.007518 0.000000 -0.000002 0.000002 -8.207786 -6.751667 -1.599560 -0.077001 -0.000003 0.000080 -0.000002 -44.370110 0.345938 0.153719 -0.000000 -0.000000 0.000000 -44.423679 -3.043532 -0.076700 0.000000 -0.000002 -0.000006 -8.728667 10.710559 -0.000009 -0.000000 -0.000000 -0.000001 -0.000679 9.278123 0.000000 -0.000000 -0.000000 8.207792 -6.751710 -1.599556 -0.074518 -0.000003 0.000081 -0.000002 -44.370014 0.346960 0.148822 0.000002 0.000000 -0.000001 -44.423664 -3.044403 -0.074314 0.000000 -0.000002 -0.000004 -8.728671 10.710558 0.000007 -0.000000 -0.000000 0.000000 -0.000680 9.278137 -0.000000 0.000000 -0.000001 
0.000006 104.270477 1.554256 0.000010 0.000003 -0.000113 -0.000005 10.181587 0.131522 0.000001 -0.000003 0.000084 -0.000000 9.893967 -1.470711 0.000001 0.000000 -0.000000 -0.000000 9.220802 -1.370642 0.000000 -0.000000 -0.000000 0.000001 16.740433 -2.049030 0.000000 -0.000000 -0.000000 0.000000 9.617859 1.685014 0.000000 0.000000 0.000000 0.000002 22.037384 7.501101 0.000000 -0.000000 0.000000 -4.569968 11.014880 -2.160881 0.000008 0.000001 -0.000038 -10.592864 -0.524793 -2.231863 73.216213 38.873380 -29.378672 -27.841496 -0.000010 0.000591 -43.039194 112.162115 60.772107 -28.328814 0.000021 0.000027 -0.000321 -0.000042 0.000004 -2.464392 -1.573905 2.682354 -34.965234 -151.467436 15.935832 -3.215228 -1.872472 1.924606 145.461391 34.177778 41.317775 -2.654955 -1.527888 1.513071 148.964117 27.235934 -30.756721 -2.018834 -1.151986 1.108063 -0.000002 -0.000003 0.000002 -9.108374 -0.517562 2.260139 102.126409 16.703721 -20.654598 -3.700085 0.000311 0.001528 100.029493 13.389056 -15.906331 -2.850101 0.000370 -0.000234 99.974818 10.990412 -13.074159 -2.772154 -0.000014 -0.000014 -0.000000 -0.000004 -0.000001 -9.532596 0.000263 0.000278 100.952785 16.610410 -20.240207 -3.700070 0.000340 0.004006 103.244887 10.593512 -13.236547 -2.950053 0.000337 -0.001769 104.941567 10.584392 -13.743077 -2.946639 0.000015 -0.000152 0.000002 0.000000 -0.000000 -9.103689 -0.042773 -1.864807 102.118561 18.848633 -23.159544 -3.379336 0.000329 -0.000776 104.808973 7.576793 -9.852392 -2.889740 0.000358 0.000711 109.876072 5.713733 -8.198355 -2.638815 -0.000002 0.000935 -0.000002 0.000002 -0.000001 -8.076757 -0.486413 -3.805996 91.382829 23.007301 -23.392464 -3.600043 0.000286 -0.003487 95.529362 9.043410 -9.563084 -2.100008 0.000321 -0.005463 98.095976 4.409654 -4.832216 -2.115771 -0.000048 -0.003680 0.000000 0.000000 -0.000011 4.570446 11.014691 -2.160851 -0.000018 0.000010 -0.000021 10.592488 -0.524587 -2.232348 31.284449 -70.583673 22.420554 27.841724 -0.000088 -0.000076 57.611013 -110.177706 76.469753 28.328833 -0.000045 0.000024 0.000020 -0.000089 -0.000000 2.466143 -1.576211 2.681852 121.867199 141.192086 -161.622425 3.217782 -1.872023 1.916535 248.133615 53.394905 59.299832 2.655948 -1.528838 1.514627 181.299981 46.872959 123.424838 2.020891 -1.154080 1.115143 -0.000002 0.000004 0.000002 9.109142 -0.517687 2.259991 16.781324 -171.082414 124.296547 3.700055 0.000008 -0.000270 -9.552970 -165.945771 -428.134289 2.850117 0.000255 0.000309 -33.948895 -166.744602 221.675306 2.774890 -0.000029 -0.000008 0.000001 0.000003 0.000002 9.533531 0.000287 0.000061 -198.056853 -7.737482 -313.945301 3.700019 0.000067 -0.000388 53.238951 -2.780037 1.392332 2.950018 0.000000 -0.000110 195.684592 -178.012215 180.274210 2.952864 -0.000018 0.000060 0.000001 -0.000002 0.000001 9.104604 -0.042664 -1.865095 -201.646500 -3.716738 19.273655 3.149965 0.000113 -0.000127 225.445201 -195.792304 173.352278 2.949981 0.000038 -0.000021 13.467525 5.846131 -0.690752 2.644319 0.000031 0.000054 0.000001 -0.000001 -0.000001 8.077792 -0.486505 -3.806323 -216.466330 0.466426 0.010511 3.599923 0.000092 0.014581 37.722021 17.071587 -5.799866 2.099981 -0.000021 0.007622 15.311437 15.422784 -2.087860 2.125516 -0.000028 0.007515 -0.000000 0.000001 0.000001 -8.207786 -6.751667 -1.599560 -0.077001 -0.000003 0.000080 -0.000002 -44.370110 0.345938 0.153719 -0.000000 -0.000000 0.000000 -44.423679 -3.043532 -0.076700 0.000000 -0.000002 -0.000006 -8.728667 10.710559 -0.000009 -0.000000 -0.000000 -0.000001 -0.000679 9.278123 0.000000 -0.000000 -0.000000 8.207792 -6.751710 -1.599556 -0.074518 -0.000003 0.000081 -0.000002 -44.370014 0.346960 0.148822 0.000002 0.000000 -0.000001 -44.423664 -3.044403 -0.074314 0.000000 -0.000002 -0.000004 -8.728671 10.710558 0.000007 -0.000000 -0.000000 0.000000 -0.000680 9.278137 -0.000000 0.000000 -0.000001 
0.000006 104.270477 1.554256 0.000010 0.000003 -0.000113 -0.000005 10.181587 0.131522 0.000001 -0.000003 0.000084 -0.000000 9.893967 -1.470711 0.000001 0.000000 -0.000000 -0.000000 9.220802 -1.370642 0.000000 -0.000000 -0.000000 0.000001 16.740433 -2.049030 0.000000 -0.000000 -0.000000 0.000000 9.617859 1.685014 0.000000 0.000000 0.000000 0.000002 22.037384 7.501101 0.000000 -0.000000 0.000000 -4.569968 11.014880 -2.160881 0.000008 0.000001 -0.000038 -10.592869 -0.524794 -2.231866 73.221001 37.865578 -28.594309 -27.841503 -0.000007 0.000575 -42.647326 112.120301 60.231231 -28.328812 0.000021 0.000030 -0.000320 -0.000044 0.000006 -2.464391 -1.573892 2.682364 -34.172734 -151.137798 17.353419 -3.215227 -1.872483 1.924598 145.957960 34.237457 39.982206 -2.654946 -1.527892 1.513064 148.914434 27.219304 -30.977039 -2.018822 -1.151986 1.108068 -0.000003 0.000001 -0.000000 -9.108366 -0.517554 2.260167 102.797885 17.007958 -21.275208 -3.700083 0.000317 0.001521 100.246393 13.599059 -16.216643 -2.850094 0.000366 -0.000248 99.863233 11.106543 -13.186096 -2.772171 -0.000013 -0.000021 -0.000000 -0.000003 -0.000000 -9.532586 0.000263 0.000288 101.601161 16.984056 -20.924086 -3.700070 0.000327 0.004026 103.658544 10.875557 -13.690744 -2.950061 0.000326 -0.001755 105.260995 10.815302 -14.122348 -2.946618 -0.000002 -0.000153 0.000001 0.000000 0.000000 -9.103689 -0.042771 -1.864826 102.799907 19.262288 -23.945530 -3.379325 0.000326 -0.000773 105.102971 7.857234 -10.269684 -2.889752 0.000373 0.000711 110.461398 5.864088 -8.503909 -2.638805 -0.000016 0.000946 0.000001 -0.000003 -0.000002 -8.076761 -0.486411 -3.805986 91.968122 23.625191 -24.262999 -3.600023 0.000264 -0.003481 95.446348 9.467894 -10.013403 -2.099998 0.000326 -0.005464 98.390159 4.761872 -5.263768 -2.115759 -0.000052 -0.003677 0.000001 -0.000000 -0.000007 4.570446 11.014691 -2.160851 -0.000018 0.000010 -0.000021 10.592487 -0.524578 -2.232353 31.644673 -70.218217 22.536091 27.841726 -0.000096 -0.000076 57.539289 -110.169708 76.378864 28.328838 -0.000027 0.000021 0.000024 -0.000089 0.000000 2.466147 -1.576190 2.681845 122.155297 144.047064 -161.979999 3.217782 -1.872038 1.916569 249.065225 51.983617 57.866524 2.655920 -1.528873 1.514618 183.337959 46.146708 120.318440 2.020895 -1.154064 1.115149 -0.000001 0.000003 0.000004 9.109134 -0.517687 2.260027 21.586406 -169.048985 126.630669 3.699877 -0.000017 -0.000240 -1.419434 -164.801905 -370.495689 2.850108 0.000216 0.000350 -22.217463 -166.014114 243.979220 2.774889 -0.000046 -0.000024 0.000001 0.000001 -0.000001 9.533541 0.000180 0.000089 -193.141931 -11.565576 -277.423569 3.700013 0.000079 -0.000363 57.627173 -5.974968 3.287303 2.950011 -0.000011 -0.000127 201.311015 -178.375199 180.306230 2.952853 -0.000037 0.000061 0.000003 -0.000000 -0.000001 9.104677 -0.042780 -1.865066 -198.960241 -10.348241 56.950653 3.149982 0.000114 -0.000124 225.831052 -191.669069 175.053486 2.949974 0.000020 -0.000025 15.907162 7.335720 -1.026180 2.644312 -0.000001 0.000057 0.000001 -0.000000 0.000002 8.077889 -0.486584 -3.806287 -212.627067 -9.083974 32.315773 3.599930 0.000067 0.014582 39.811264 13.015260 -4.633938 2.099971 0.000030 0.007621 16.359164 14.652564 -2.113325 2.125504 -0.000030 0.007513 -0.000000 -0.000002 -0.000000 -8.207786 -6.751667 -1.599560 -0.077001 -0.000003 0.000080 -0.000002 -44.370110 0.345938 0.153719 -0.000000 -0.000000 0.000000 -44.423679 -3.043532 -0.076700 0.000000 -0.000002 -0.000006 -8.728667 10.710559 -0.000009 -0.000000 -0.000000 -0.000001 -0.000679 9.278123 0.000000 -0.000000 -0.000000 8.207792 -6.751710 -1.599556 -0.074518 -0.000003 0.000081 -0.000002 -44.370014 0.346960 0.148822 0.000002 0.000000 -0.000001 -44.423664 -3.044403 -0.074314 0.000000 -0.000002 -0.000004 -8.728671 10.710558 0.000007 -0.000000 -0.000000 0.000000 -0.000680 9.278137 -0.000000 0.000000 -0.000001 
